<svg xmlns="http://www.w3.org/2000/svg" xmlns:xlink="http://www.w3.org/1999/xlink" viewBox="0,0,256,256" width="100px" height="100px" fill-rule="nonzero"><g transform="translate(-94.72,-94.72) scale(1.74,1.74)"><g fill="none" fill-rule="nonzero" stroke="none" stroke-width="1" stroke-linecap="butt" stroke-linejoin="miter" stroke-miterlimit="10" stroke-dasharray="" stroke-dashoffset="0" font-family="none" font-weight="none" font-size="none" text-anchor="none" style="mix-blend-mode: normal"><g transform="translate(2.56,0) scale(2.56,2.56)"><path d="M78,13c-0.55228,0 -1,0.44772 -1,1c0,0.55228 0.44772,1 1,1c0.55228,0 1,-0.44772 1,-1c0,-0.55228 -0.44772,-1 -1,-1z" fill-opacity="0" fill="#f1bc19"></path><path d="M50,12c-20.98682,0 -38,17.01318 -38,38c0,20.98682 17.01318,38 38,38c20.98682,0 38,-17.01318 38,-38c0,-20.98682 -17.01318,-38 -38,-38z" fill-opacity="0" fill="#f9dbd2"></path><path d="M84,12c-2.20914,0 -4,1.79086 -4,4c0,2.20914 1.79086,4 4,4c2.20914,0 4,-1.79086 4,-4c0,-2.20914 -1.79086,-4 -4,-4z" fill-opacity="0" fill="#f1bc19"></path><path d="M14,24c-1.10457,0 -2,0.89543 -2,2c0,1.10457 0.89543,2 2,2c1.10457,0 2,-0.89543 2,-2c0,-1.10457 -0.89543,-2 -2,-2z" fill-opacity="0" fill="#ee3e54"></path><path d="M78,75c-1.10457,0 -2,0.89543 -2,2c0,1.10457 0.89543,2 2,2c1.10457,0 2,-0.89543 2,-2c0,-1.10457 -0.89543,-2 -2,-2zM17,74c-2.20914,0 -4,1.79086 -4,4c0,2.20914 1.79086,4 4,4c2.20914,0 4,-1.79086 4,-4c0,-2.20914 -1.79086,-4 -4,-4z" fill-opacity="0" fill="#fbcd59"></path><path d="M24,81c-1.10457,0 -2,0.89543 -2,2c0,1.10457 0.89543,2 2,2c1.10457,0 2,-0.89543 2,-2c0,-1.10457 -0.89543,-2 -2,-2z" fill-opacity="0" fill="#ee3e54"></path><path d="M66.5,76c-1.38071,0 -2.5,1.11929 -2.5,2.5c0,1.38071 1.11929,2.5 2.5,2.5c1.38071,0 2.5,-1.11929 2.5,-2.5c0,-1.38071 -1.11929,-2.5 -2.5,-2.5zM16,47c-0.55228,0 -1,0.44772 -1,1c0,0.55228 0.44772,1 1,1c0.55228,0 1,-0.44772 1,-1c0,-0.55228 -0.44772,-1 -1,-1z" fill-opacity="0" fill="#88337f"></path><path d="M86,30c-0.55228,0 -1,0.44772 -1,1c0,0.55228 0.44772,1 1,1c0.55228,0 1,-0.44772 1,-1c0,-0.55228 -0.44772,-1 -1,-1z" fill-opacity="0" fill="#f1bc19"></path><path d="M80,64c-1.10457,0 -2,0.89543 -2,2c0,1.10457 0.89543,2 2,2c1.10457,0 2,-0.89543 2,-2c0,-1.10457 -0.89543,-2 -2,-2z" fill-opacity="0" fill="#88337f"></path><path d="M38,73.3c-4,0 -7.3,-3.3 -7.3,-7.3v-33c0,-4 3.3,-7.3 7.3,-7.3h23c4,0 7.3,3.3 7.3,7.3v33c0,4 -3.3,7.3 -7.3,7.3z" fill="#ffef08"></path><path d="M62.4,64.6v-27.6c0,-1.3 1,-2.4 2.3,-2.4h3.5v30h-5.8z" fill="#3ec036"></path><path d="M61,26.4c3.6,0 6.6,3 6.6,6.6v33c0,3.6 -3,6.6 -6.6,6.6h-23c-3.6,0 -6.6,-3 -6.6,-6.6v-33c0,-3.6 3,-6.6 6.6,-6.6h23M61,25h-23c-4.4,0 -8,3.6 -8,8v33c0,4.4 3.6,8 8,8h23c4.4,0 8,-3.6 8,-8v-33c0,-4.4 -3.6,-8 -8,-8z" fill="#472b29"></path><path d="M62.5,70c-0.3,0 -0.5,-0.2 -0.5,-0.5v-32.6c0,-1.6 1.3,-2.9 2.9,-2.9h3.6c0.3,0 0.5,0.2 0.5,0.5c0,0.3 -0.2,0.5 -0.5,0.5h-3.6c-1.1,0 -1.9,0.9 -1.9,1.9v32.6c0,0.3 -0.2,0.5 -0.5,0.5z" fill="#472b29"></path><path d="M41.3,49.5h14.4c1,0 1.8,-0.8 1.8,-1.8v-10.4c0,-1 -0.8,-1.8 -1.8,-1.8h-14.4c-1,0 -1.8,0.8 -1.8,1.8v10.4c0,1 0.8,1.8 1.8,1.8z" fill="#fefdef"></path><path d="M47.1,36h-2.2c-0.3,0 -0.5,-0.2 -0.5,-0.5c0,-0.3 0.2,-0.5 0.5,-0.5h2.2c0.3,0 0.5,0.2 0.5,0.5c0,0.3 -0.2,0.5 -0.5,0.5z" fill="#472b29"></path><path d="M55.8,50h-14.6c-1.2,0 -2.2,-1.1 -2.2,-2.3v-10.4c0,-1.3 1,-2.3 2.2,-2.3h1.3c0.3,0 0.5,0.2 0.5,0.5c0,0.3 -0.2,0.5 -0.5,0.5h-1.3c-0.7,0 -1.2,0.6 -1.2,1.3v10.3c0,0.7 0.6,1.3 1.2,1.3h14.5c0.7,0 1.2,-0.6 1.2,-1.3v-10.3c0,-0.7 -0.6,-1.3 -1.2,-1.3h-6.3c-0.3,0 -0.5,-0.2 -0.5,-0.5c0,-0.3 0.2,-0.5 0.5,-0.5h6.3c1.2,0 2.2,1.1 2.2,2.3v10.3c0.1,1.3 -0.9,2.4 -2.1,2.4zM33.5,35h-5c-0.3,0 -0.5,-0.2 -0.5,-0.5c0,-0.3 0.2,-0.5 0.5,-0.5h5c0.3,0 0.5,0.2 0.5,0.5c0,0.3 -0.2,0.5 -0.5,0.5zM67.5,41h-5c-0.3,0 -0.5,-0.2 -0.5,-0.5c0,-0.3 0.2,-0.5 0.5,-0.5h5c0.3,0 0.5,0.2 0.5,0.5c0,0.3 -0.2,0.5 -0.5,0.5zM67.5,47h-5c-0.3,0 -0.5,-0.2 -0.5,-0.5c0,-0.3 0.2,-0.5 0.5,-0.5h5c0.3,0 0.5,0.2 0.5,0.5c0,0.3 -0.2,0.5 -0.5,0.5zM67.5,53h-5c-0.3,0 -0.5,-0.2 -0.5,-0.5c0,-0.3 0.2,-0.5 0.5,-0.5h5c0.3,0 0.5,0.2 0.5,0.5c0,0.3 -0.2,0.5 -0.5,0.5zM67.5,59h-5c-0.3,0 -0.5,-0.2 -0.5,-0.5c0,-0.3 0.2,-0.5 0.5,-0.5h5c0.3,0 0.5,0.2 0.5,0.5c0,0.3 -0.2,0.5 -0.5,0.5z" fill="#472b29"></path><g fill="#472b29"><path d="M67.5,65h-5c-0.3,0 -0.5,-0.2 -0.5,-0.5c0,-0.3 0.2,-0.5 0.5,-0.5h5c0.3,0 0.5,0.2 0.5,0.5c0,0.3 -0.2,0.5 -0.5,0.5z"></path></g><g fill="#472b29"><path d="M33.5,40h-5c-0.3,0 -0.5,-0.2 -0.5,-0.5c0,-0.3 0.2,-0.5 0.5,-0.5h5c0.3,0 0.5,0.2 0.5,0.5c0,0.3 -0.2,0.5 -0.5,0.5z"></path></g><g fill="#472b29"><path d="M33.5,45h-5c-0.3,0 -0.5,-0.2 -0.5,-0.5c0,-0.3 0.2,-0.5 0.5,-0.5h5c0.3,0 0.5,0.2 0.5,0.5c0,0.3 -0.2,0.5 -0.5,0.5z"></path></g><g fill="#472b29"><path d="M33.5,50h-5c-0.3,0 -0.5,-0.2 -0.5,-0.5c0,-0.3 0.2,-0.5 0.5,-0.5h5c0.3,0 0.5,0.2 0.5,0.5c0,0.3 -0.2,0.5 -0.5,0.5z"></path></g><g fill="#472b29"><path d="M33.5,55h-5c-0.3,0 -0.5,-0.2 -0.5,-0.5c0,-0.3 0.2,-0.5 0.5,-0.5h5c0.3,0 0.5,0.2 0.5,0.5c0,0.3 -0.2,0.5 -0.5,0.5z"></path></g><g fill="#472b29"><path d="M33.5,60h-5c-0.3,0 -0.5,-0.2 -0.5,-0.5c0,-0.3 0.2,-0.5 0.5,-0.5h5c0.3,0 0.5,0.2 0.5,0.5c0,0.3 -0.2,0.5 -0.5,0.5z"></path></g><g fill="#472b29"><path d="M33.5,65h-5c-0.3,0 -0.5,-0.2 -0.5,-0.5c0,-0.3 0.2,-0.5 0.5,-0.5h5c0.3,0 0.5,0.2 0.5,0.5c0,0.3 -0.2,0.5 -0.5,0.5z"></path></g><g><path d="M48.5,38.5c-1.65685,0 -3,1.34315 -3,3c0,1.65685 1.34315,3 3,3c1.65685,0 3,-1.34315 3,-3c0,-1.65685 -1.34315,-3 -3,-3z" fill="#091c6c"></path><path d="M48.5,39c1.4,0 2.5,1.1 2.5,2.5c0,1.4 -1.1,2.5 -2.5,2.5c-1.4,0 -2.5,-1.1 -2.5,-2.5c0,-1.4 1.1,-2.5 2.5,-2.5M48.5,38c-1.9,0 -3.5,1.6 -3.5,3.5c0,1.9 1.6,3.5 3.5,3.5c1.9,0 3.5,-1.6 3.5,-3.5c0,-1.9 -1.6,-3.5 -3.5,-3.5z" fill="#472b29"></path></g><g><path d="M43.5,49.5c0.2,-2.8 2.4,-5 5,-5c2.6,0 4.7,2.2 5,5z" fill="#091c6c"></path><path d="M48.5,45c2.2,0 4,1.7 4.4,4h-8.8c0.4,-2.3 2.2,-4 4.4,-4M48.5,44c-3,0 -5.5,2.7 -5.5,6h11c0,-3.3 -2.5,-6 -5.5,-6z" fill="#472b29"></path></g><g><path d="M41.5,76.5l-2,0.8v-3.8h4v3.8z" fill="#091c6c"></path><path d="M43,74v2.5l-1.2,-0.5l-0.4,-0.1l-0.4,0.2l-1,0.4v-2.5h3M44,73h-5v5l2.5,-1l2.5,1v-5z" fill="#472b29"></path></g></g></g></g></svg>