<svg xmlns="http://www.w3.org/2000/svg" xmlns:xlink="http://www.w3.org/1999/xlink" viewBox="0,0,256,256" width="192px" height="192px" fill-rule="nonzero"><g fill="none" fill-rule="nonzero" stroke="none" stroke-width="1" stroke-linecap="butt" stroke-linejoin="miter" stroke-miterlimit="10" stroke-dasharray="" stroke-dashoffset="0" font-family="none" font-weight="none" font-size="none" text-anchor="none" style="mix-blend-mode: normal"><g transform="scale(0.5,0.5)"><path d="M213.4,436.9c-2.8,-3.5 -7.9,-5.5 -11.9,-7.3c-4.2,-1.9 -8.6,-3.4 -12.8,-5.4c-4.9,-2.4 -9.2,-5.6 -14,-8.1c-2.7,9.7 -1.2,19 -1.1,29.1c0.1,8.8 -0.4,17.8 1.2,26.4c5.6,-2.4 11.1,-5.5 16.2,-8.8c7.4,-4.7 16.5,-10.4 21,-18.3c1.1,-1.8 3.1,-5.4 1.4,-7.6zM379.5,227.4c-15.5,-43.6 -57.8,-72.5 -104,-73.1c-12.6,-0.2 -25.3,1.2 -37.3,5.5c-12.8,4.7 -24.5,11.7 -35.1,20.2c-9.6,7.7 -18.7,16.6 -26.8,25.8c-5.2,5.9 -11.5,13.6 -12.4,21.7c-2.4,6.5 -2.9,13.5 -3.4,20.5c-1.7,10 -2.9,20.2 -3.8,30.3c-1.2,13.6 -1.5,27.4 0.9,40.9c2.2,12.5 7.1,25.1 15.7,34.6c10.4,11.3 24.4,18.8 39.1,23c13.8,4 28,5.8 42.3,6.7c13.8,0.9 27.8,2 41.5,1.4c26.5,-1.1 53.5,-9.1 71.5,-29.7c30,-34.1 26,-87.8 11.8,-127.8zM253.8,246.7c-4.4,7.8 -12,14.5 -20.8,16.8c-10,2.6 -17.7,-3.3 -21.4,-12.4c-1.5,-3.9 2.2,-6.8 5.7,-6.6c0.2,0 0.3,0 0.5,0c2,0.2 3.3,1.9 3.8,3.7c0,-0.2 -0.1,-0.4 -0.1,-0.6c0.6,0.9 0.9,1.8 0.9,2.7c5.5,8.1 16.4,0.7 21.4,-6.4c0.5,-1.9 1.6,-3.3 3.9,-4.2c4,-1.6 8.3,3.3 6.1,7zM312.2,316.4c-2.5,9.5 -7.9,21.9 -18.7,24.3c-11.9,2.6 -24.3,-3.6 -27.9,-15.6c-1.8,-6.2 7.6,-9.5 9.4,-3.3c2.1,7 10.4,12.2 17.5,8.7c5.7,-2.9 8.4,-10.2 9.9,-16c1.6,-6.2 11.5,-4.3 9.8,1.9zM343.2,235.4c-2.7,8.1 -6.1,16.8 -15,19.5c-9.6,2.9 -20.1,-4.1 -23.6,-12.8c-2.4,-6 7,-9.3 9.4,-3.3c1.7,4.1 8.4,9.1 12.9,5.9c2.2,-1.6 3.6,-3.9 4.7,-6.4c-0.8,-1.6 -0.8,-3.5 0.9,-5.1c0.7,-0.7 1.3,-1.3 2,-2c3.2,-3.1 10.5,-0.9 8.7,4.2zM332.4,446.9c-0.6,-5 -5.4,-4.4 -9.4,-3.9c-6.2,0.8 -11.8,1.6 -18,1.4c-7.8,-0.2 -15.6,-0.5 -23.3,0c2.5,6.3 7.1,11.5 11.3,16.6c4.4,5.3 8,11.3 12.3,16.6c2.2,2.6 7.3,9 11,5c4.1,-4.5 6.5,-11.1 9.2,-16.6c2.6,-5.2 7.6,-13 6.9,-19.1zM177.3,130.6c-1.5,-1 -3.1,-1.9 -4.6,-2.8c-8.4,-4.6 -17.2,-9.3 -26.7,-11.2c-4.4,-0.9 -9.7,-1.9 -14.2,-1.2c-0.6,0.1 -1,0.4 -1.1,0.5c0,0.3 0,0.7 0,1c0.7,5 3.7,9.8 6,14.2c4.4,8.5 8.3,22.8 17.2,28.5c1.3,-3.8 4,-7.4 6.4,-10.2c4.2,-5 8.7,-9.8 13.5,-14.2c1.4,-1.2 2.8,-2.4 4,-3.8c0.1,-0.1 0.1,-0.1 0.2,-0.2c-0.2,-0.2 -0.5,-0.4 -0.7,-0.6zM268.3,68.1c-1.7,-3.7 -3.5,-8.6 -6.9,-11.1c-2.5,-1.9 -4.9,1.1 -6.3,2.9c-5.4,7.2 -9.3,16.3 -11.8,24.9c-1.2,4.2 -2.6,8.8 -2.6,13.2c0,0.7 0,1.4 0.1,2c0.6,-0.3 1.3,-0.5 2.1,-0.5c8.6,-0.1 17.1,-1.3 25.6,-0.9c5.5,0.3 11.3,0.8 16.7,-0.2c-5.3,-10.2 -12.1,-19.6 -16.9,-30.3zM386.6,87.9c-7.8,1.1 -15.5,3.4 -22.8,6.2c-7.8,2.9 -16.4,6.2 -22.8,11.9c1.6,1.3 3.2,2.8 4.5,3.8c3.1,2.4 6,4.9 9,7.4c4,3.4 8.2,6.8 12,10.4c1.9,1.8 4,3.8 5.4,6.1c2.7,-2.1 5.9,-3 8.7,-5.3c3.3,-2.7 4.3,-9.5 5,-13.4c1.9,-8.7 2.8,-18.2 1,-27.1zM119.6,361.5c-2.2,-3.2 -4.7,-6.3 -7,-9.5c-3.1,-4.1 -6.5,-8.7 -8.2,-13.7c-7.5,2.2 -10.8,14.4 -14.8,20.3c-2.9,4.3 -5.9,8.5 -8.4,13c-1.7,3.1 -4.1,6.8 -3.9,10.4c0.1,2 4.2,2.4 6.7,2.4c3.9,0 7.9,-0.4 11.7,-1.1c9.9,-1.9 17.5,-9.4 26.8,-13.2c0,-0.6 0.1,-1.3 0.3,-2c0.7,-1.5 -2.3,-5.4 -3.2,-6.6zM104.2,228.3c-2.8,-4.5 -10.1,-1.2 -13.8,0.2c-5,1.9 -9.9,4.3 -15,5.9c-4.7,1.5 -9.7,2.3 -14.3,4c-1.5,0.6 -3.5,1.2 -4.6,2.4c0,0.1 0.1,0.1 0.1,0.2c0.9,1.4 2,2.8 3.3,3.9c4.2,3.9 38.2,30.1 41,24.6c2.6,-5 2.3,-11.5 2.8,-17c0.7,-7.5 1.5,-15 2.7,-22.4c-0.9,-0.3 -1.6,-0.9 -2.2,-1.8zM416.5,415.2c-1,-4.6 -1,-8.6 -1,-13.3c0,-4 0.6,-9.4 -1,-13.2c0.1,0.2 -0.2,-0.1 -0.6,0c-0.9,0.1 -1.8,0.4 -2.6,0.8c-6,2.8 -10.9,8.6 -15,13.5c-1.9,2.3 -3.8,4.7 -5.5,7.2c-0.4,0.6 -0.9,1.3 -1.2,2c-0.1,0.6 -0.3,1.1 -0.5,1.6c4.3,3.9 8.9,7.6 13.8,10.6c5,3.1 10.7,6.3 16.7,7.1c-0.5,-5.5 -2,-10.9 -3.1,-16.3zM445.2,184.3c-6.2,0.5 -16,-1.9 -21,2.4c-0.7,0.6 -1.4,0.9 -2.1,1.1c3.4,6 6,12.6 8.5,19c0.9,2.3 2.5,5.3 3.3,8.3c0.6,0.4 1.2,0.9 1.6,1.7c1,1.7 3.6,10.3 5.6,10.8c-0.3,-0.3 1.5,-1.5 1.9,-2c0.8,-0.9 1.6,-1.9 2.2,-2.9c1.2,-1.8 2.3,-3.7 3.2,-5.6c3.2,-6.4 8.3,-11.9 11.7,-18.3c2.7,-5.1 4.9,-10.2 6.3,-15.7c-6.8,-1.4 -14.5,0.7 -21.2,1.2zM461.5,309c-2.3,0.7 -4.9,0.1 -5.9,-2.1c-1.7,9.8 -4.6,18.6 -8.3,28c-0.9,2.3 -3.8,8.2 -2.1,10.6c1.1,1.6 3.3,2.3 5.1,2.7c7.3,1.7 14.9,1.8 22.3,2.3c3.3,0.2 6.8,0.4 10.1,1c-1.8,-15.8 -9.2,-32.2 -21.2,-42.5z" fill="#ffef08"></path><path d="M395.1,80.8c-0.7,-2.1 -2.9,-3.5 -5.1,-3.3c-10.5,0.8 -21,4 -30.8,7.6c-9.4,3.5 -19.2,8 -26.6,15c-1.6,1.5 -1.8,3.2 -1.1,4.7c-1.3,1.5 -1.7,3.7 -0.5,6.1c0.2,0.3 0.4,0.5 0.6,0.8c0.9,0.6 1.7,1.2 2.6,1.8v0v0c1.6,1.2 3.2,2.4 4.8,3.6c2.6,1.9 5,3.9 7.4,6c3.3,2.9 6.8,5.8 10.1,8.7c0.9,0.8 2.3,1.9 3.5,3.1c4.6,3 9.1,6.1 13.3,9.6c1.3,0.1 2.7,-0.4 3.7,-1.8c3,-3.9 8.4,-4.9 11.9,-8.4c3.8,-3.9 5.1,-10.9 6.3,-16c2.9,-11.9 3.6,-25.6 -0.1,-37.5zM385.8,115.1c-0.8,3.9 -1.7,10.7 -5,13.4c-2.8,2.3 -6,3.2 -8.7,5.3c-1.4,-2.3 -3.5,-4.3 -5.4,-6.1c-3.8,-3.7 -8,-7 -12,-10.4c-3,-2.6 -5.9,-5.1 -9,-7.4c-1.4,-1 -2.9,-2.5 -4.5,-3.8c6.3,-5.6 15,-9 22.8,-11.9c7.3,-2.7 15,-5.1 22.8,-6.2c1.6,8.8 0.7,18.3 -1,27.1zM124.8,356.3c-4.7,-6.6 -9.4,-13.2 -13.5,-20.2c-1.8,-2.6 -3.6,-5.2 -5.3,-7.9c-0.4,0.2 -0.8,0.5 -1.2,0.8c-0.9,-0.4 -2,-0.5 -3.2,-0.3c-11.1,2.4 -14.9,16.2 -20.4,24.5c-5.9,9 -14.6,19 -13.9,30.4c0.7,11.3 16,11.2 24,10.4c5.2,-0.5 10.3,-1.5 15,-3.7c7.1,-3.3 13.2,-8.5 20.6,-11.2c2.2,-0.8 3.1,-2.5 3.2,-4.3c0.7,-0.5 1.2,-1.2 1.6,-2.2c0.5,-1.3 0.7,-2.6 0.8,-3.9c-2.5,-4.1 -4.9,-8.5 -7.7,-12.4zM122.9,368.3c-0.2,0.7 -0.4,1.3 -0.3,2c-9.2,3.7 -16.9,11.3 -26.8,13.2c-3.9,0.7 -7.8,1.1 -11.7,1.1c-2.5,0 -6.6,-0.4 -6.7,-2.4c-0.2,-3.6 2.2,-7.4 3.9,-10.4c2.5,-4.5 5.5,-8.7 8.4,-13c4,-5.9 7.3,-18.1 14.8,-20.3c1.7,5 5.1,9.5 8.2,13.7c2.4,3.1 4.8,6.2 7,9.5c0.8,1 3.8,4.9 3.2,6.6zM171,115.6c-11.3,-5.9 -22.4,-9.1 -35.1,-10.1c-6.7,-0.6 -14.5,1.6 -15.2,9.4c-0.6,6.8 3.3,13.5 6.3,19.3c6.7,12.9 11.7,30.2 26.1,36.2c4.8,-5.6 10.4,-10.5 15.7,-15.5c2.2,-2.6 4.6,-5 6.9,-7.4c4.3,-4.5 12.7,-9.5 12.7,-16.5c0.2,-8.1 -11.8,-12.5 -17.4,-15.4zM177.8,131.4c-1.2,1.4 -2.6,2.6 -4,3.8c-4.8,4.3 -9.3,9.2 -13.5,14.2c-2.4,2.8 -5.1,6.4 -6.4,10.2c-8.9,-5.7 -12.8,-20 -17.2,-28.5c-2.3,-4.4 -5.4,-9.2 -6,-14.2c0,-0.3 0,-0.7 0,-1c0.2,-0.1 0.5,-0.4 1.1,-0.5c4.5,-0.7 9.8,0.3 14.2,1.2c9.5,1.9 18.2,6.6 26.7,11.2c1.6,0.9 3.2,1.7 4.6,2.8c0.2,0.2 0.5,0.4 0.7,0.6c-0.1,0.1 -0.1,0.2 -0.2,0.2zM297.1,99.8c-4.1,-9 -9.7,-17.1 -14.7,-25.6c-3,-5.2 -5.1,-10.9 -7.9,-16.3c-2.7,-5.2 -6.5,-9.9 -12.3,-11.3c-5.4,-1.3 -10.8,2.2 -14.1,6.1c-7.5,9 -12.1,21.1 -15.2,32.2c-1.8,6.4 -3.8,16.5 -0.2,23.1c7,-0.7 14.7,0.5 21.3,0.8c0.9,0 1.9,0.1 2.8,0.1c4.7,-0.3 9.4,-0.4 14.2,-0.2c7.8,0.4 15.7,0.8 23,-2.5c2.3,-1 4.3,-3.7 3.1,-6.4zM268.6,98.6c-8.6,-0.4 -17.1,0.8 -25.6,0.9c-0.8,0 -1.5,0.2 -2.1,0.5c0,-0.7 -0.1,-1.3 -0.1,-2c0,-4.4 1.3,-9 2.6,-13.2c2.5,-8.6 6.4,-17.7 11.8,-24.9c1.4,-1.8 3.7,-4.8 6.3,-2.9c3.4,2.5 5.2,7.4 6.9,11.1c4.7,10.7 11.6,20.1 17,30.3c-5.5,1.1 -11.3,0.5 -16.8,0.2zM110.3,220c-9.7,-9.7 -27.9,1.3 -38.3,5c-9.7,3.4 -33.4,6.6 -23.3,22.5c2.6,4.1 6.9,7.3 10.7,10.1c5.1,3.7 10.2,7.4 15.4,11c7.7,5.4 18.3,14.2 28.4,11.1c7.3,-2.2 8.7,-11.6 9.4,-18c1.3,-12.2 2.2,-24.4 4.5,-36.4c1,-4.3 -3.5,-6.5 -6.8,-5.3zM103.6,252.6c-0.5,5.5 -0.3,12 -2.8,17c-2.8,5.5 -36.8,-20.7 -41,-24.6c-1.3,-1.2 -2.3,-2.5 -3.3,-3.9c0,-0.1 -0.1,-0.1 -0.1,-0.2c1.1,-1.3 3.1,-1.9 4.6,-2.4c4.7,-1.7 9.6,-2.5 14.3,-4c5.1,-1.7 10,-4 15,-5.9c3.8,-1.4 11.1,-4.7 13.8,-0.2c0.6,0.9 1.3,1.5 2.1,1.9c-1.1,7.3 -1.9,14.8 -2.6,22.3zM481.6,318.2c-3.4,-6 -7.8,-11.6 -12.9,-16.3c-2.2,-2 -5.7,-5.5 -9,-4.2c-1.9,0.8 -3,1.9 -3.6,3.3c-1.4,-4.4 -8.8,-5.1 -9.6,0.5c-0.9,6.4 -2,12.8 -4,19c-1.7,5.2 -4.3,10 -6,15.2c-2.5,8 -1.8,15.8 6,20.1c6.6,3.7 15.4,3.7 22.8,4.1c6.5,0.4 15,-0.2 20.9,3c3.5,2 7.3,-1.3 7.2,-4.9c-0.2,-13.9 -4.9,-27.7 -11.8,-39.8zM472.7,350.4c-7.5,-0.5 -15,-0.6 -22.3,-2.3c-1.8,-0.4 -4,-1.1 -5.1,-2.7c-1.7,-2.4 1.2,-8.3 2.1,-10.6c3.7,-9.3 6.6,-18.2 8.3,-28c0.9,2.2 3.6,2.9 5.9,2.1c11.9,10.3 19.3,26.7 21.3,42.4c-3.4,-0.5 -6.9,-0.6 -10.2,-0.9zM474.6,175c-9.8,-3.9 -20,-1.7 -30.2,-0.7c-8.4,0.8 -18.8,-1.9 -25.9,4.1c-2,1.7 -2.2,4.1 -1.5,6.1c-3.1,0.5 -6,4.2 -3.9,7.8c2.5,4.3 4.3,9.1 6.3,13.7c1.1,2.5 2.1,5 3.1,7.6c0.7,1.3 1.3,2.6 2,3.9c0.1,-0.2 0.2,-0.3 0.3,-0.5c-0.1,0.3 -0.1,0.6 -0.1,0.8c0.8,1.7 1.6,3.4 2.4,5.2c0.3,0.2 0.5,0.3 0.8,0.4c2.7,5 3.9,10.3 9.4,13.2c6.3,3.4 12.3,-2.9 15.6,-7.5c4.5,-6.3 8.6,-13.2 12.7,-19.8c5.5,-8.8 10,-18.5 11.7,-28.9c0.3,-2 -0.6,-4.6 -2.7,-5.4zM460.2,198.7c-3.4,6.4 -8.4,11.9 -11.7,18.3c-1,1.9 -2.1,3.8 -3.2,5.6c-0.7,1 -1.4,2 -2.2,2.9c-0.5,0.6 -2.3,1.8 -1.9,2c-2.1,-0.6 -4.6,-9.2 -5.6,-10.8c-0.5,-0.8 -1,-1.3 -1.6,-1.7c-0.7,-3 -2.3,-6 -3.3,-8.3c-2.6,-6.4 -5.2,-13 -8.5,-19c0.7,-0.1 1.4,-0.5 2.1,-1.1c5.1,-4.3 14.8,-1.9 21,-2.4c6.8,-0.5 14.4,-2.6 21.3,-1.3c-1.5,5.6 -3.7,10.7 -6.4,15.8zM426.5,414.8c-1.4,-6.3 -0.9,-12.2 -1.1,-18.6c-0.1,-4.9 -0.4,-11.4 -4.3,-14.9c-3.1,-2.9 -7.4,-2.9 -11.3,-2c-8.3,2 -15.3,10.2 -20.6,16.4c-2.6,3 -9.4,9.7 -9.9,14.9c-2,1.8 -2.8,5.1 -0.3,7.6c11.3,11.2 28.7,25.1 45.7,23.2c2,-0.2 4.4,-1.8 4.5,-4c0.6,-7.8 -0.9,-15 -2.7,-22.6zM402.7,424.4c-4.9,-3 -9.6,-6.7 -13.8,-10.6c0.3,-0.5 0.5,-1 0.5,-1.6c0.4,-0.7 0.8,-1.4 1.2,-2c1.7,-2.5 3.6,-4.8 5.5,-7.2c4.1,-5 9.1,-10.7 15,-13.5c0.8,-0.4 1.7,-0.7 2.6,-0.8c0.4,0 0.7,0.2 0.6,0c1.7,3.8 1.1,9.2 1,13.2c-0.1,4.6 0,8.7 1,13.3c1.1,5.4 2.7,10.7 3,16.2c-5.8,-0.7 -11.5,-3.9 -16.6,-7zM331.7,433.2c-6,-1.7 -12.8,0.3 -18.8,1.2c-5.3,0.7 -11.1,-0.1 -16.4,-0.2c-5.8,-0.2 -11.7,-0.1 -17.5,0.4c-3.3,0.3 -4.7,3 -4.4,5.5c-2.2,0.9 -3.9,3.2 -2.9,6.1c2.9,8.8 9.3,15.9 15.1,22.9c5.3,6.5 9.3,14 15.4,19.8c4.8,4.4 12,6.9 17.9,3.3c7.1,-4.3 10,-13.2 13.6,-20.3c5.8,-11.2 16.5,-33.5 -2,-38.7zM325.5,466c-2.7,5.5 -5.1,12.1 -9.2,16.6c-3.7,4 -8.8,-2.3 -11,-5c-4.4,-5.4 -7.9,-11.3 -12.3,-16.6c-4.2,-5.1 -8.8,-10.4 -11.3,-16.6c7.8,-0.5 15.6,-0.2 23.3,0c6.3,0.2 11.9,-0.6 18,-1.4c4,-0.5 8.8,-1.1 9.4,3.9c0.7,6.1 -4.3,13.9 -6.9,19.1zM223.3,434.6c-1.2,-4.9 -6.6,-8.2 -10.7,-10.5c-5.1,-3 -10.8,-5.1 -16.3,-7.3c-7,-2.9 -12.9,-7.7 -19.8,-10.7c-1.4,-0.6 -2.7,-0.6 -3.8,-0.1c-2.2,-1 -4.8,-0.5 -6,2.4c-4.4,11.6 -4,22.5 -3.3,34.7c0.7,12.5 -0.7,25 3.1,37.2c0.8,2.6 3.9,3.9 6.4,3.1c9,-3.1 17.6,-8 25.6,-13.2c8.9,-5.7 18.3,-12.9 23.2,-22.5c2.2,-4.3 2.6,-8.7 1.6,-13.1zM212,444.7c-4.5,7.9 -13.5,13.6 -21,18.3c-5.1,3.3 -10.6,6.3 -16.2,8.8c-1.6,-8.7 -1.1,-17.7 -1.2,-26.4c-0.2,-10.1 -1.6,-19.5 1.1,-29.1c4.8,2.5 9.2,5.7 14,8.1c4.2,2 8.6,3.5 12.8,5.4c4,1.8 9.1,3.7 11.9,7.3c1.7,2 -0.3,5.6 -1.4,7.6zM247.7,239.8c-2.3,1 -3.4,2.3 -3.9,4.2c-5,7 -15.9,14.4 -21.4,6.4c0,-0.9 -0.3,-1.8 -0.9,-2.7c0,0.2 0.1,0.4 0.1,0.6c-0.5,-1.8 -1.9,-3.5 -3.8,-3.7c-0.2,0 -0.3,0 -0.5,0c-3.5,-0.3 -7.2,2.7 -5.7,6.6c3.6,9.1 11.3,14.9 21.4,12.4c8.8,-2.2 16.4,-9 20.8,-16.8c2.2,-3.8 -2.1,-8.7 -6.1,-7zM334.6,231.2c-0.7,0.7 -1.3,1.3 -2,2c-1.7,1.7 -1.7,3.6 -0.9,5.1c-1.1,2.5 -2.5,4.9 -4.7,6.4c-4.5,3.2 -11.2,-1.8 -12.9,-5.9c-2.4,-6 -11.9,-2.7 -9.4,3.3c3.5,8.8 14,15.8 23.6,12.8c8.9,-2.7 12.3,-11.5 15,-19.5c1.7,-5.1 -5.6,-7.3 -8.7,-4.2zM302.4,314.5c-1.5,5.8 -4.2,13.1 -9.9,16c-7.1,3.5 -15.4,-1.7 -17.5,-8.7c-1.8,-6.2 -11.3,-2.9 -9.4,3.3c3.6,12 16,18.2 27.9,15.6c10.8,-2.4 16.2,-14.8 18.7,-24.3c1.7,-6.2 -8.2,-8.1 -9.8,-1.9z" fill="#091c6c"></path><path d="M392.5,235.8c-6.1,-22.2 -16.7,-41.9 -33.4,-57.9c-30.1,-29 -76.3,-40.2 -116.5,-29.9c-23.9,6.1 -44.5,21.6 -61.6,38.7c-11.4,11.3 -28.4,27.2 -27.1,44.7c-0.2,0.4 -0.3,0.7 -0.4,1.2c-4.8,21.2 -7.4,43.8 -7.5,65.5c0,19.9 3.9,40.3 15.5,56.8c14,19.8 37.8,29.9 60.8,34.7c13.8,2.9 28,3.8 42,4.4c13.7,0.7 27.3,1.5 41,0.4c26,-2.2 51.1,-12.2 69.1,-31.5c15.2,-16.3 22.6,-38.3 24.8,-60.1c2.3,-22.6 -0.8,-45.3 -6.7,-67zM367.8,355.2c-18,20.6 -45,28.6 -71.5,29.7c-13.8,0.6 -27.8,-0.5 -41.5,-1.4c-14.3,-0.9 -28.5,-2.7 -42.3,-6.7c-14.7,-4.2 -28.7,-11.7 -39.1,-23c-8.7,-9.5 -13.5,-22.1 -15.7,-34.6c-2.4,-13.5 -2.1,-27.3 -0.9,-40.9c0.9,-10 2.1,-20.2 3.8,-30.3c0.5,-7 1,-14 3.4,-20.5c0.9,-8.1 7.2,-15.8 12.4,-21.7c8.1,-9.3 17.2,-18.1 26.8,-25.8c10.6,-8.5 22.3,-15.6 35.1,-20.2c11.9,-4.4 24.6,-5.7 37.3,-5.5c46.1,0.6 88.5,29.4 104,73.1c14.1,40 18.1,93.7 -11.8,127.8z" fill="#091c6c"></path></g></g></svg>