<svg xmlns="http://www.w3.org/2000/svg" xmlns:xlink="http://www.w3.org/1999/xlink" viewBox="0,0,256,256" width="160px" height="160px" fill-rule="nonzero"><g fill="none" fill-rule="nonzero" stroke="none" stroke-width="1" stroke-linecap="butt" stroke-linejoin="miter" stroke-miterlimit="10" stroke-dasharray="" stroke-dashoffset="0" font-family="none" font-weight="none" font-size="none" text-anchor="none" style="mix-blend-mode: normal"><g transform="scale(3.2,3.2)"><path d="M72,12v-4h-4v-4h-8v4h-8v4h-8.125v10h-7.875v-10h-8v-4h-8v-4h-8v4h-4v4h-4v12v28h8v8h8v8h10v8h10h10v-8h10v-8h8v-8h8v-28v-12z" fill="#ed0000"></path><path d="M67,5v3v1h1h3v3v1h1h3v11v27h-7h-1v1v7h-7h-1v1v7h-9h-1v1v7h-9h-9v-7v-1h-1h-9v-7v-1h-1h-7v-7v-1h-1h-7v-27v-11h3h1v-1v-3h3h1v-1v-3h6v3v1h1h7v3v1h1h7v9v1h1h7.875h1v-1v-9h7.125h1v-1v-3h7h1v-1v-3h6M68,4h-8v4h-8v4h-8.125v10h-7.875v-10h-8v-4h-8v-4h-8v4h-4v4h-4v12v28h8v8h8v8h10v8h10h10v-8h10v-8h8v-8h8v-28v-12h-4v-4h-4v-4z" fill="#6a0000"></path></g></g></svg>